<?xml version="1.0" encoding="UTF-8" standalone="no"?>
<!-- Created with Inkscape (http://www.inkscape.org/) -->

<svg
   width="2160"
   height="1080"
   viewBox="0 0 571.5 285.75"
   version="1.1"
   id="svg8"
   inkscape:version="1.1.1 (c3084ef, 2021-09-22)"
   sodipodi:docname="lavender.svg"
   inkscape:export-filename="/Users/giovix92/Desktop/Logos/lineageos/lavender.png"
   inkscape:export-xdpi="96"
   inkscape:export-ydpi="96"
   xmlns:inkscape="http://www.inkscape.org/namespaces/inkscape"
   xmlns:sodipodi="http://sodipodi.sourceforge.net/DTD/sodipodi-0.dtd"
   xmlns="http://www.w3.org/2000/svg"
   xmlns:svg="http://www.w3.org/2000/svg"
   xmlns:rdf="http://www.w3.org/1999/02/22-rdf-syntax-ns#"
   xmlns:cc="http://creativecommons.org/ns#"
   xmlns:dc="http://purl.org/dc/elements/1.1/">
  <defs
     id="defs2">
    <rect
       x="144"
       y="380"
       width="1460"
       height="332"
       id="rect65250" />
    <rect
       x="120"
       y="352"
       width="1372"
       height="260"
       id="rect51002" />
    <rect
       x="136"
       y="352"
       width="1168"
       height="252"
       id="rect38017" />
    <rect
       x="180"
       y="380"
       width="708"
       height="188"
       id="rect14917" />
    <rect
       x="124"
       y="368"
       width="1084"
       height="200"
       id="rect4495" />
    <rect
       x="84.83429"
       y="828.29541"
       width="1022.4241"
       height="206.36206"
       id="rect40427" />
    <rect
       x="120.7147"
       y="497.1438"
       width="1259.8402"
       height="364.61287"
       id="rect10528" />
    <clipPath
       id="clipPath831">
      <path
         d="M 0,595.28 H 841.89 V 0 H 0 Z"
         id="path5655" />
    </clipPath>
  </defs>
  <sodipodi:namedview
     id="base"
     pagecolor="#167c80"
     bordercolor="#666666"
     borderopacity="1.0"
     inkscape:pageopacity="1"
     inkscape:pageshadow="2"
     inkscape:zoom="0.25"
     inkscape:cx="1194"
     inkscape:cy="654"
     inkscape:document-units="mm"
     inkscape:current-layer="layer1"
     showgrid="false"
     inkscape:window-width="1366"
     inkscape:window-height="653"
     inkscape:window-x="0"
     inkscape:window-y="25"
     inkscape:window-maximized="1"
     inkscape:pagecheckerboard="0"
     units="px"
     width="2400px">
    <inkscape:grid
       type="xygrid"
       id="grid12" />
  </sodipodi:namedview>
  <metadata
     id="metadata5">
    <rdf:RDF>
      <cc:Work
         rdf:about="">
        <dc:format>image/svg+xml</dc:format>
        <dc:type
           rdf:resource="http://purl.org/dc/dcmitype/StillImage" />
      </cc:Work>
    </rdf:RDF>
  </metadata>
  <g
     inkscape:label="Livello 1"
     inkscape:groupmode="layer"
     id="layer1"
     transform="translate(0,3)">
    <g
       style="fill:#ffffff;fill-opacity:1"
       id="g1076"
       transform="matrix(1.3394531,0,0,1.3394531,299.52553,16.442531)">
      <path
         d="M 61.13,27 A 1.1,1.1 0 0 1 60,25.83 V 13 h 2.79 V 24.62 H 69 V 27 Z m 16.24,0 V 13 h 2.81 V 27 Z M 99.1,13 h 2.56 v 13.2 a 0.74,0.74 0 0 1 -0.4,0.65 1.9,1.9 0 0 1 -1,0.24 2.4,2.4 0 0 1 -1,-0.18 1.86,1.86 0 0 1 -0.67,-0.61 l -6.2,-8.7 V 27 H 89.8 V 14.07 a 0.94,0.94 0 0 1 0.41,-0.84 1.91,1.91 0 0 1 1.07,-0.23 2.15,2.15 0 0 1 1.14,0.23 3.55,3.55 0 0 1 0.85,0.94 l 5.83,8.16 z m 21.43,2.36 h -6.42 v 3.3 h 5.78 v 2.36 h -5.78 v 3.53 h 6.24 V 27 H 111.3 V 14.17 a 1,1 0 0 1 0.35,-0.82 1.22,1.22 0 0 1 0.84,-0.31 h 8 z M 138.23,27 137.06,23.55 H 132 L 130.79,27 h -2.91 l 4.72,-12.9 a 2.17,2.17 0 0 1 3.8,0 l 4.73,12.9 z m -5.46,-5.81 h 3.49 L 134.5,16 Z m 22.23,6 a 6.62,6.62 0 0 1 -5,-1.91 7.16,7.16 0 0 1 -1.83,-5.17 7.27,7.27 0 0 1 2,-5.34 6.93,6.93 0 0 1 5.17,-2 6.86,6.86 0 0 1 3.6,0.9 A 5.38,5.38 0 0 1 161,16 l -2.24,1.19 a 3.64,3.64 0 0 0 -3.57,-2 3.92,3.92 0 0 0 -3.08,1.3 5.15,5.15 0 0 0 -1.11,3.51 5.2,5.2 0 0 0 1.07,3.48 3.67,3.67 0 0 0 2.93,1.28 4,4 0 0 0 2.76,-0.95 3.16,3.16 0 0 0 1.12,-2.39 h -3.53 v -2.2 h 6.3 v 1.54 a 6.11,6.11 0 0 1 -1.87,4.63 6.67,6.67 0 0 1 -4.78,1.79 z M 180,15.4 h -6.42 v 3.3 h 5.78 v 2.36 h -5.78 v 3.53 h 6.24 V 27 h -9.05 V 14.17 A 1,1 0 0 1 171.12,13.35 1.22,1.22 0 0 1 172,13 h 8 z"
         id="path2"
         style="fill:#ffffff;fill-opacity:1" />
      <path
         d="m 48,20 a 4,4 0 0 0 -3,1.33 L 44.77,21.24 A 29.62,29.62 0 0 0 40,19.81 v 0 a 8,8 0 0 0 -16,0 h -0.22 a 29.53,29.53 0 0 0 -4.6,1.39 l -0.23,0.09 a 4,4 0 1 0 0.93,1.78 v 0 a 27.62,27.62 0 0 1 4.29,-1.29 8,8 0 0 0 15.57,0 27.55,27.55 0 0 1 4.29,1.28 v 0 A 4,4 0 1 0 48,20 Z m -32,6 a 2,2 0 1 1 2,-2 2,2 0 0 1 -2,2 z m 16,0 a 6,6 0 1 1 6,-6 6,6 0 0 1 -6,6 z m 16,0 a 2,2 0 1 1 2,-2 2,2 0 0 1 -2,2 z M 35,20 a 3,3 0 1 1 -3,-3 3,3 0 0 1 3,3 z"
         id="path4"
         style="fill:#ffffff;fill-opacity:1" />
    </g>
    <g
       transform="matrix(0.37978292,0,0,-0.37980938,-178.12227,180.05159)"
       id="g5670">
      <path
         id="path5660"
         style="fill:#ffffff;fill-opacity:1;stroke-width:1.43545"
         d="m 122.63281,300.73438 c -3.14496,0 -5.69531,2.54817 -5.69531,5.69335 v 138.61524 c 0,3.14518 2.55035,5.69531 5.69531,5.69531 h 138.60547 c 3.14496,0 5.69531,-2.55013 5.69531,-5.69531 V 306.42773 c 0,-3.14518 -2.55035,-5.69335 -5.69531,-5.69335 z m 26.67969,47.17968 h 44.95117 c 4.33778,0 8.21761,0.71205 12.47071,4.875 4.06505,3.98782 4.44335,8.51705 4.44335,11.66797 v 38.19727 c 0,0.49094 -0.41167,0.89258 -0.91406,0.89258 H 198.4668 c -0.50526,0 -0.91602,-0.40164 -0.91602,-0.89258 v -34.14258 c 0,-3.53277 -2.02996,-9.00977 -9.17969,-9.00977 h -25.42382 c -0.50527,0 -0.91211,0.40451 -0.91211,0.89258 v 42.25977 c 0,0.49094 -0.41558,0.89258 -0.91797,0.89258 H 149.3125 c -0.50526,0 -0.91016,-0.40164 -0.91016,-0.89258 v -53.84375 c 0,-0.49525 0.4049,-0.89649 0.91016,-0.89649 z m 73.44141,0 h 11.80078 c 0.50095,0 0.91601,0.40124 0.91601,0.89649 v 53.84375 c 0,0.49094 -0.41506,0.89258 -0.91601,0.89258 h -11.80078 c -0.50526,0 -0.91407,-0.40164 -0.91407,-0.89258 v -53.84375 c 0,-0.49525 0.40881,-0.89649 0.91407,-0.89649 z m -49.15039,21.44532 h 12.39062 c 0.50096,0 0.91211,0.40215 0.91211,0.89453 v 32.40429 c 0,0.48951 -0.41115,0.89258 -0.91211,0.89258 h -12.39062 c -0.50527,0 -0.91993,-0.40307 -0.91993,-0.89258 v -32.40429 c 0,-0.49238 0.41466,-0.89453 0.91993,-0.89453 z"
         transform="matrix(0.69666991,0,0,-0.69662138,474.46294,604.63396)" />
      <g
         fill="#ffffff"
         id="g5668" />
    </g>
    <text
       xml:space="preserve"
       transform="matrix(0.26458333,0,0,0.26458333,11.379184,5.129801)"
       id="text40425"
       style="font-style:normal;font-variant:normal;font-weight:bold;font-stretch:normal;font-size:96px;line-height:1.25;font-family:'product sans';-inkscape-font-specification:'product sans Bold';white-space:pre;shape-inside:url(#rect40427);fill:#ffffff;fill-opacity:1;stroke:none"><tspan
         x="84.833984"
         y="915.87863"
         id="tspan87023">New release</tspan></text>
    <text
       xml:space="preserve"
       transform="matrix(0.26458333,0,0,0.26458333,0,-3)"
       id="text4493"
       style="fill:black;fill-opacity:1;line-height:1.25;stroke:none;font-family:sans-serif;font-style:normal;font-weight:normal;font-size:40px;white-space:pre;shape-inside:url(#rect4495)" />
    <text
       xml:space="preserve"
       transform="matrix(0.26458333,0,0,0.26458333,0,-3)"
       id="text14915"
       style="font-style:normal;font-variant:normal;font-weight:normal;font-stretch:normal;font-size:192px;line-height:1.25;font-family:'Google Sans';-inkscape-font-specification:'Google Sans';white-space:pre;shape-inside:url(#rect14917);fill:#000000;fill-opacity:1;stroke:none"><tspan
         x="180"
         y="740.0704"
         id="tspan87027"><tspan
           dx="0 3.0729148 3.0312483 3.2083311 4.6666641 1.208333 1.239583 3.7812462 3.0937481 1.833334 2.9999981 1.2395821"
           style="font-size:5.33333px;fill:#ffffff"
           id="tspan87025">Redmi Note 7</tspan></tspan></text>
    <text
       xml:space="preserve"
       transform="matrix(0.26458333,0,0,0.26458333,0,-3)"
       id="text51000"
       style="fill:black;fill-opacity:1;line-height:1.25;stroke:none;font-family:sans-serif;font-style:normal;font-weight:normal;font-size:40px;white-space:pre;shape-inside:url(#rect51002)" />
    <text
       xml:space="preserve"
       transform="matrix(0.26458333,0,0,0.26458333,-7.7993328,-7.7625005)"
       id="text65248"
       style="font-size:128px;line-height:1.25;font-family:sans-serif;white-space:pre;shape-inside:url(#rect65250)"><tspan
         x="144"
         y="496.77828"
         id="tspan87031"><tspan
           style="font-family:'Google Sans';-inkscape-font-specification:'Google Sans';fill:#ffffff"
           id="tspan87029">Redmi Note 7</tspan></tspan></text>
  </g>
</svg>
